<svg width="104" height="104" viewBox="0 0 104 104" fill="none" xmlns="http://www.w3.org/2000/svg">
<path fill-rule="evenodd" clip-rule="evenodd" d="M17.2404 80.8456C2.39036 62.9688 3.54023 36.469 20.0953 19.914C28.6604 11.3492 40.0229 6.63528 52.1325 6.63528C64.2421 6.63528 75.6046 11.3492 84.1694 19.914C92.7342 28.4788 97.4669 39.8412 97.4669 51.9512C97.4669 64.0608 92.7534 75.4233 84.1885 83.9884C75.4511 92.7255 63.8398 97.2668 52.1133 97.2668C44.8127 97.2668 37.455 95.5043 30.7294 91.8824C24.6941 96.2323 18.7923 97.1709 14.788 97.1709C13.2933 97.1709 12.067 97.0366 11.2045 96.9024C9.36528 96.6155 7.94728 95.1779 7.65964 93.3388C7.37269 91.4992 8.31128 89.7172 9.97822 88.8934C13.4463 87.1881 15.7841 83.7775 17.2404 80.8456ZM22.682 80.0029C22.8162 80.5391 22.7778 81.1141 22.5481 81.6695C21.1109 84.9462 18.6581 89.1618 14.7688 91.9975H14.788C18.1602 91.9975 23.2569 91.1544 28.4495 87.1305C28.507 87.073 28.5834 87.0158 28.6604 86.9775C29.4843 86.1532 30.7681 85.9618 31.8025 86.5751C47.5529 95.8296 67.576 93.2621 80.5095 80.3285C89.8051 71.033 93.5811 58.2853 91.8336 46.1854H82.1667C81.2891 46.1854 80.5785 45.9072 80.0371 45.3528C79.4956 44.7971 79.2243 44.0813 79.2243 43.2047C79.2243 42.3286 79.4956 41.6197 80.0371 41.0793C80.5785 40.5382 81.2891 40.2683 82.1667 40.2683H90.5118C88.6584 34.156 85.3217 28.3993 80.4903 23.5738C64.8554 7.91905 39.3904 7.91905 23.736 23.5738C8.75199 38.5575 8.02399 62.7007 22.0495 78.5465C22.4135 78.9681 22.6244 79.4851 22.682 80.0029ZM52.8701 32.7512C53.7644 32.7512 54.5339 32.4301 55.1789 31.7843C55.8236 31.1397 56.1457 30.3698 56.1457 29.4748C56.1457 28.5812 55.8236 27.8114 55.1789 27.1667C54.5339 26.522 53.7644 26.1999 52.8701 26.1999C51.9751 26.1999 51.2059 26.522 50.5613 27.1667C49.9162 27.8114 49.5937 28.5812 49.5937 29.4748C49.5937 30.3698 49.9162 31.1397 50.5613 31.7843C51.2059 32.4301 51.9751 32.7512 52.8701 32.7512ZM35.856 54.4588C35.3553 54.9466 34.7114 55.19 33.9216 55.19C33.1323 55.19 32.4939 54.9455 32.0075 54.4588C31.5204 53.9714 31.2771 53.3316 31.2771 52.5412V35.5057C31.2771 33.0818 32.0926 31.0533 33.7247 29.4202C35.3553 27.7854 37.3814 26.9684 39.8028 26.9684C42.1967 26.9684 44.2099 27.7941 45.8416 29.4443C47.473 31.0945 48.2888 33.1209 48.2888 35.5238V35.801C48.2888 36.5928 48.0451 37.2396 47.5587 37.742C47.0717 38.243 46.4336 38.4937 45.6446 38.4937C44.8807 38.4937 44.2433 38.2357 43.7305 37.719C43.2169 37.2033 42.9606 36.5611 42.9606 35.7927V35.5141C42.9606 34.6142 42.6576 33.8527 42.0527 33.2314C41.4471 32.6087 40.6975 32.2974 39.8028 32.2974C38.9078 32.2974 38.1512 32.6077 37.5334 33.229C36.9145 33.8503 36.6056 34.6093 36.6056 35.5082V41.1777H42.5956C43.3853 41.1777 44.0226 41.428 44.5101 41.928C44.9968 42.4276 45.2398 43.0723 45.2398 43.8617C45.2398 44.6507 44.9968 45.2894 44.5101 45.7758C44.0226 46.2636 43.3853 46.5066 42.5956 46.5066H36.6056V52.5447C36.6056 53.334 36.3556 53.9724 35.856 54.4588ZM42.4931 71.0918C41.5758 72.0119 40.4716 72.4718 39.1805 72.4718C37.8888 72.4718 36.7912 72.0119 35.8875 71.0918C34.9827 70.1703 34.5315 69.0612 34.5315 67.7649C34.5315 66.4682 34.9827 65.3665 35.8875 64.4582C36.7912 63.5496 37.8888 63.096 39.1805 63.096C40.4716 63.096 41.5758 63.5496 42.4931 64.4582C43.4094 65.3665 43.8683 66.4682 43.8683 67.7649C43.8683 69.0612 43.4094 70.1703 42.4931 71.0918ZM39.1805 57.8661C36.3913 57.8661 34.0469 58.8162 32.1488 60.7192C30.25 62.6208 29.3009 64.97 29.3009 67.7649C29.3009 70.5594 30.25 72.9146 32.1488 74.8305C34.0469 76.7453 36.3913 77.7027 39.1805 77.7027C41.9702 77.7027 44.3201 76.7453 46.2318 74.8305C48.1432 72.9146 49.0985 70.5594 49.0985 67.7649C49.0985 64.97 48.1432 62.6208 46.2318 60.7192C44.3201 58.8162 41.9702 57.8661 39.1805 57.8661ZM61.0844 57.9051C61.0152 57.9051 60.9478 57.909 60.8803 57.913C60.8366 57.9156 60.7929 57.9182 60.7487 57.9197C60.7046 57.9182 60.6611 57.9156 60.6176 57.9131C60.5501 57.9091 60.4826 57.9051 60.4132 57.9051C58.0622 57.9051 56.0801 58.7073 54.4658 60.3115C52.8515 61.916 52.0444 63.8964 52.0444 66.2506V75.0626C52.0444 75.8387 52.2832 76.4666 52.7612 76.945C53.2389 77.424 53.8658 77.6639 54.6405 77.6639C55.4149 77.6639 56.0477 77.424 56.5389 76.945C57.0288 76.4666 57.275 75.8387 57.275 75.0615V66.2432C57.275 65.3622 57.58 64.6248 58.1905 64.0289C58.8017 63.4334 59.5482 63.135 60.4324 63.135C60.5056 63.135 60.5755 63.1436 60.6453 63.1522L60.6454 63.1522L60.6455 63.1522L60.6463 63.1523C60.6803 63.1565 60.7143 63.1607 60.7487 63.1639C60.7671 63.1622 60.7854 63.1602 60.8036 63.1581C60.8198 63.1562 60.836 63.1542 60.8522 63.1522L60.8523 63.1522C60.9223 63.1436 60.9921 63.135 61.0652 63.135C61.9491 63.135 62.6959 63.4334 63.3071 64.0289C63.9176 64.6248 64.2227 65.3622 64.2227 66.2432V75.0615C64.2227 75.8387 64.4688 76.4666 64.9587 76.945C65.45 77.424 66.0828 77.6639 66.8575 77.6639C67.6322 77.6639 68.2588 77.424 68.7364 76.945C69.2144 76.4666 69.4533 75.8387 69.4533 75.0626V66.2506C69.4533 63.8964 68.6461 61.916 67.0315 60.3115C65.4175 58.7073 63.4354 57.9051 61.0844 57.9051ZM55.0781 54.4578C55.5773 53.97 55.8277 53.3302 55.8277 52.5398V37.7093C55.8277 35.9433 54.9327 35.0605 53.1437 35.0605C52.3547 35.0605 51.716 35.3035 51.2296 35.7927C50.7425 36.2801 50.4995 36.9185 50.4995 37.7093V52.5398C50.4995 53.3302 50.7425 53.97 51.2296 54.4578C51.716 54.9452 52.3547 55.19 53.1437 55.19C53.9331 55.19 54.5777 54.9452 55.0781 54.4578ZM72.365 43.6646C73.1278 43.6646 73.7589 43.9149 74.2596 44.4149C74.7592 44.9149 75.0092 45.5459 75.0092 46.3085V46.6648C75.0092 49.0594 74.1937 51.0781 72.5623 52.7224C70.9302 54.3677 68.9178 55.1898 66.5235 55.1898C64.1024 55.1898 62.0764 54.374 60.445 52.743C58.8133 51.1109 57.9981 49.0848 57.9981 46.6648V33.0866C57.9981 32.2972 58.2411 31.6529 58.7282 31.153C59.2146 30.653 59.8533 30.4026 60.6423 30.4026C61.4317 30.4026 62.0764 30.653 62.5767 31.153C63.076 31.6529 63.3263 32.2972 63.3263 33.0866V35.1782H69.5377C70.3278 35.1782 70.9651 35.4216 71.4522 35.908C71.9393 36.3957 72.1823 37.0331 72.1823 37.8235C72.1823 39.6125 71.3005 40.5075 69.5377 40.5075H63.3263V46.6648C63.3263 47.5588 63.6356 48.3164 64.2538 48.9342C64.8716 49.552 65.6285 49.8606 66.5235 49.8606C67.4175 49.8606 68.1678 49.552 68.7731 48.9342C69.378 48.3164 69.6806 47.5588 69.6806 46.6648V46.3085C69.6806 45.5459 69.9372 44.9149 70.4505 44.4149C70.9637 43.9149 71.6018 43.6646 72.365 43.6646Z" fill="#CEC9BC"/>
</svg>
